<?xml version="1.0" encoding="UTF-8"?>
<svg version="1.1" xmlns="http://www.w3.org/2000/svg" width="840" height="779">
<path d="M0 0 C1.16172183 -0.00436032 2.32344365 -0.00872064 3.52036917 -0.0132131 C6.72277202 -0.02222582 9.92482727 -0.01795162 13.12721629 -0.00787924 C16.6195981 -0.00022938 20.11193973 -0.01006454 23.60431576 -0.01760924 C29.71786805 -0.02841943 35.83134079 -0.02813096 41.9448967 -0.02046776 C51.03607774 -0.00910323 60.12719188 -0.01493039 69.21837249 -0.02409268 C85.45678472 -0.03987929 101.69516151 -0.03852495 117.93357709 -0.02985594 C132.14415264 -0.02230683 146.35471521 -0.02034031 160.56529236 -0.02392387 C161.50821449 -0.02415303 162.45113662 -0.02438218 163.42263215 -0.02461828 C167.25033956 -0.02555231 171.07804696 -0.02650751 174.90575435 -0.02749758 C210.80655447 -0.03667288 246.70733202 -0.02835687 282.60812865 -0.01220688 C314.49808764 0.00202974 346.38801069 0.00075585 378.27796936 -0.01358986 C414.11345375 -0.02965661 449.94891822 -0.03602215 485.78440571 -0.02675307 C489.60510571 -0.02579093 493.42580572 -0.02485241 497.24650574 -0.02392387 C498.18724728 -0.02368664 499.12798883 -0.02344941 500.0972377 -0.02320499 C514.29826464 -0.01979375 528.49927718 -0.0237812 542.70030212 -0.03136253 C558.8488296 -0.03994062 574.99731612 -0.03779514 591.1458385 -0.0215203 C600.1816283 -0.01271403 609.2173294 -0.01213267 618.25311689 -0.02345882 C624.29101866 -0.03019201 630.3288494 -0.02598838 636.36674066 -0.01294452 C639.80530621 -0.00581808 643.24369571 -0.00334726 646.68225563 -0.01416247 C650.39227198 -0.02328736 654.10180681 -0.01392481 657.8117981 0 C659.40061198 -0.01053525 659.40061198 -0.01053525 661.02152312 -0.02128333 C677.23918973 0.10033995 691.03497815 5.89821894 702.75746155 17.12752342 C715.00275522 29.95168553 719.40051818 45.01470438 719.28342247 62.54502678 C719.28996295 64.28129321 719.28996295 64.28129321 719.29663557 66.05263573 C719.30563754 69.23857461 719.30138334 72.42416303 719.29130171 75.61008788 C719.28364334 79.08637447 719.29349033 82.562621 719.30103171 86.03890181 C719.31183578 92.122674 719.31155723 98.20636624 719.30389023 104.29014206 C719.29252005 113.33707798 719.29835578 122.38394673 719.30751515 131.43088223 C719.3232974 147.59078917 719.32194917 163.7506605 719.31327841 179.91057082 C719.30572781 194.0524875 719.30376348 208.19439114 719.30734634 222.33630943 C719.30769008 223.74413327 719.30769008 223.74413327 719.30804075 225.180398 C719.30897479 228.99040201 719.30992999 232.80040601 719.31092005 236.61041001 C719.32009432 272.3415086 719.31178098 308.07258452 719.29562935 343.80367961 C719.28139284 375.53940662 719.28266674 407.27509751 719.29701233 439.0108242 C719.31308083 474.67712537 719.31944365 510.34340651 719.31017554 546.00971079 C719.3092134 549.81271966 719.30827488 553.61572853 719.30734634 557.41873741 C719.3069905 558.82330467 719.3069905 558.82330467 719.30662746 560.25624702 C719.30321694 574.38828667 719.30720232 588.52031183 719.314785 602.65234947 C719.32336507 618.72323684 719.32121339 634.79408307 719.30494277 650.86496532 C719.29613983 659.85611442 719.29555032 668.84717439 719.3068813 677.83832116 C719.3136185 683.84770764 719.30940362 689.85702281 719.29636699 695.86639874 C719.28924611 699.28784002 719.28675805 702.70910449 719.29758494 706.13054007 C719.30672191 709.82386918 719.29733508 713.51671597 719.28342247 717.21002007 C719.29044597 718.26150343 719.29746947 719.31298679 719.3047058 720.39633328 C719.17707256 737.37614697 713.68279796 751.65497448 701.7535553 763.68221092 C692.25603311 772.67163522 679.42796018 779.49468366 666.03823572 779.50632459 C665.05212011 779.50959678 664.0660045 779.51286898 663.0500066 779.51624033 C661.96685839 779.5147567 660.88371018 779.51327308 659.7677393 779.5117445 C658.61217107 779.51409673 657.45660285 779.51644896 656.26601741 779.51887247 C653.04367955 779.52440212 649.82137567 779.52543352 646.59903429 779.52459506 C643.09882588 779.52476442 639.59862642 779.530669 636.09842247 779.53583592 C629.14940015 779.54516948 622.20038421 779.54908524 615.25135641 779.55135489 C606.93035715 779.55431502 598.60936635 779.56301136 590.28837153 779.57176917 C570.17372435 779.59262303 550.05907569 779.60308509 529.94442022 779.61189878 C520.42974757 779.6161042 510.91507555 779.62132635 501.40040344 779.6265833 C468.83472202 779.64447487 436.26904043 779.65947092 403.70335484 779.6669035 C401.65847069 779.66737825 399.61358654 779.66785414 397.5687024 779.66833116 C396.04757246 779.66868572 396.04757246 779.66868572 394.49571262 779.66904745 C389.35778322 779.67024866 384.21985383 779.6714641 379.08192444 779.67268944 C378.06228345 779.67292959 377.04264246 779.67316974 375.99210326 779.67341716 C342.93444776 779.68130973 309.87682814 779.70473997 276.8191883 779.73724538 C241.8744274 779.77154369 206.92968749 779.79125467 171.98490947 779.79454774 C168.14862024 779.79496528 164.31233102 779.79544484 160.47604179 779.79597092 C159.53142937 779.79609411 158.58681694 779.7962173 157.61357989 779.79634422 C142.41171695 779.79867633 127.20989567 779.81433695 112.00804758 779.83481276 C96.72642767 779.85506939 81.44485781 779.86054884 66.16322697 779.85104213 C57.0854413 779.84582643 48.00782225 779.85170787 38.93006056 779.8735768 C32.86261704 779.88708844 26.79528815 779.88600469 20.72784348 779.87317484 C17.27303519 779.86628058 13.81854535 779.86559999 10.36376555 779.88273493 C6.63443556 779.89783568 2.90593876 779.88819236 -0.82337093 779.87250805 C-1.88544865 779.88273026 -2.94752636 779.89295246 -4.04178825 779.90348443 C-20.12737851 779.75604172 -34.03302548 773.31712143 -45.3948822 762.20564842 C-57.72610997 749.28551976 -61.42128656 733.90890019 -61.34857655 716.49014378 C-61.35178302 715.33861685 -61.3549895 714.18708993 -61.35829315 713.00066826 C-61.36513382 709.82225074 -61.36310986 706.64398584 -61.35723742 703.46557113 C-61.35304841 700.00083074 -61.36047962 696.53611135 -61.36638993 693.07137614 C-61.37513696 687.00474936 -61.37646937 680.93815633 -61.37288666 674.87152481 C-61.36757298 665.84998531 -61.37368165 656.82847842 -61.38196959 647.80694247 C-61.39720355 630.75608155 -61.39891528 613.70523549 -61.39644656 596.6543692 C-61.39461333 583.48684245 -61.39637414 570.31932057 -61.40067101 557.15179443 C-61.40127341 555.25948428 -61.40187461 553.36717413 -61.40247461 551.47486398 C-61.40338187 548.62327153 -61.40429054 545.77167907 -61.40520696 542.92008662 C-61.41363561 516.41003475 -61.41797278 489.89998471 -61.41380024 463.38993168 C-61.41364386 462.39071452 -61.41348749 461.39149735 -61.41332637 460.36200088 C-61.4125206 455.29766759 -61.41167483 450.23333429 -61.41081307 445.16900101 C-61.41064198 444.16322335 -61.4104709 443.1574457 -61.41029462 442.12118994 C-61.40994797 440.08726376 -61.40959944 438.05333758 -61.40924904 436.0194114 C-61.4038918 404.37127431 -61.4118227 372.72316508 -61.43028259 341.07503319 C-61.45100237 305.51091827 -61.46172536 269.94682061 -61.45770711 234.38269931 C-61.45731177 230.59003278 -61.45695022 226.79736624 -61.45660973 223.00469971 C-61.45651899 222.07086226 -61.45642826 221.13702481 -61.45633478 220.17488925 C-61.45516923 206.08297427 -61.46181391 191.99107673 -61.47242165 177.89916611 C-61.4844746 161.87108109 -61.48603147 145.84303447 -61.47363148 129.81494888 C-61.46700492 120.84845735 -61.46862927 111.88205765 -61.48221999 102.91557348 C-61.49047186 96.92128002 -61.48775737 90.92705525 -61.47624473 84.93276735 C-61.46999555 81.5206867 -61.47003418 78.10893098 -61.48010806 74.69683786 C-61.54201028 52.16412358 -60.74943517 33.65179968 -44.34410095 16.52596092 C-31.81813196 4.56540025 -17.14701741 -0.11369996 0 0 Z M62.90589905 130.37752342 C49.24862089 147.34242363 45.70329981 164.12342256 46.90589905 185.37752342 C48.93893604 202.45503416 59.4710505 217.78397226 72.71839905 228.25252342 C87.39507125 238.58609875 104.43902359 243.50064849 122.3394928 240.87361717 C134.7211091 238.50036104 144.94693069 234.09270342 154.90589905 226.37752342 C155.7463678 225.73428123 156.58683655 225.09103905 157.45277405 224.42830467 C168.11380664 215.51581724 177.1940005 199.27411165 178.90589905 185.37752342 C180.32200387 164.23392057 176.53589194 146.18829967 162.26527405 129.83455467 C149.81446136 116.86839378 133.13693878 108.79326486 115.11659241 107.97908592 C95.13092735 107.59321571 76.35873815 115.51634023 62.90589905 130.37752342 Z M367.43275452 325.55672264 C364.2782062 329.31857447 361.62356822 333.43407531 359.06336975 337.61653709 C356.18501991 342.28448314 356.18501991 342.28448314 352.90589905 343.37752342 C352.90589905 326.87752342 352.90589905 310.37752342 352.90589905 293.37752342 C316.93589905 293.37752342 280.96589905 293.37752342 243.90589905 293.37752342 C243.90589905 415.47752342 243.90589905 537.57752342 243.90589905 663.37752342 C281.52589905 663.37752342 319.14589905 663.37752342 357.90589905 663.37752342 C357.95488342 649.00447655 358.0038678 634.63142967 358.05433655 619.82283592 C358.08973582 610.6991321 358.12562411 601.57543451 358.16371155 592.45174217 C358.22403057 577.98089093 358.28239414 563.51005135 358.32777405 549.03914452 C358.36083971 538.49798476 358.4007501 527.95687626 358.4486891 517.41577327 C358.47381 511.84059833 358.49563285 506.26545677 358.50924301 500.69024086 C358.52219538 495.42895183 358.54438774 490.16777812 358.57328224 484.90655327 C358.58225618 482.98873337 358.588024 481.07089495 358.59011269 479.15305519 C358.62420359 452.57487419 360.43946313 421.78347707 379.53089905 401.19002342 C394.18201397 387.45460318 413.18594302 384.82232701 432.46058655 385.10408592 C446.17163871 385.58845678 459.820064 389.80236438 469.65589905 399.81502342 C486.16004231 420.75793383 487.19831802 448.07754026 487.2247467 473.5630703 C487.23406601 475.6442255 487.24423758 477.72537702 487.25518799 479.80652428 C487.28227655 485.40663012 487.29757404 491.00671112 487.31061602 496.60686493 C487.32633998 502.47783415 487.35310023 508.3487533 487.37864685 514.21968651 C487.42527164 525.31495724 487.46209421 536.41023756 487.49531972 547.50555563 C487.54083766 562.51433394 487.60165055 577.52304998 487.66156769 592.53177643 C487.75544333 616.14699407 487.82901581 639.76223018 487.90589905 663.37752342 C525.85589905 663.37752342 563.80589905 663.37752342 602.90589905 663.37752342 C602.96427885 625.63924632 602.96427885 625.63924632 603.0035553 587.90096092 C603.01536888 572.48558262 603.02916739 557.07022636 603.05677795 541.65486717 C603.07688716 530.42213909 603.08965645 519.1894291 603.09407604 507.95668352 C603.09665416 502.02438639 603.10259136 496.09214095 603.11735916 490.15986061 C604.70906991 396.42094548 604.70906991 396.42094548 562.65589905 315.69002342 C537.8861812 292.04620184 504.16678818 284.56144829 470.90589905 283.37752342 C470.00484436 283.33627342 469.10378967 283.29502342 468.1754303 283.25252342 C429.93514537 282.30392721 393.22630553 297.26520198 367.43275452 325.55672264 Z M55.90589905 293.37752342 C55.90589905 415.47752342 55.90589905 537.57752342 55.90589905 663.37752342 C93.52589905 663.37752342 131.14589905 663.37752342 169.90589905 663.37752342 C169.90589905 541.27752342 169.90589905 419.17752342 169.90589905 293.37752342 C132.28589905 293.37752342 94.66589905 293.37752342 55.90589905 293.37752342 Z " fill="#000000" transform="translate(61.09410095214844,-0.37752342224121094)"/>
<path d="M0 0 C5.37203167 2.34831559 8.63163727 6.41104133 11.58203125 11.3828125 C13.44492117 16.97148226 13.55616631 23.71327962 11.39453125 29.2578125 C7.88200448 35.31389314 3.23074968 39.22834973 -3.41796875 41.3828125 C-11.19173537 42.47942535 -16.53453041 40.82125053 -23.10546875 36.6953125 C-27.93414577 31.86663548 -29.66811143 27.20650193 -29.91796875 20.3828125 C-29.6816729 14.13672553 -28.32404505 9.42098318 -23.95703125 4.85546875 C-16.90048529 -1.32348646 -9.08244448 -2.31829762 0 0 Z M-21.85546875 8.8828125 C-25.37218763 13.25235966 -25.82981991 17.26552982 -25.7578125 22.74609375 C-25.10463365 27.81386069 -22.63207727 31.39348657 -18.87890625 34.765625 C-14.1200318 37.99083375 -8.99297285 38.3686896 -3.41796875 37.3828125 C1.36048767 35.60421037 4.57264255 33.01877429 7.08203125 28.5703125 C9.15166711 23.64568789 9.52510975 19.39061907 7.921875 14.27734375 C5.69590352 9.14122773 2.65908638 5.79208713 -2.41796875 3.3828125 C-9.95716571 0.95032611 -16.65276211 3.02200692 -21.85546875 8.8828125 Z " fill="#000000" transform="translate(827.41796875,627.6171875)"/>
<path d="M0 0 C12.78651605 -0.4215335 12.78651605 -0.4215335 17 3 C17.62890625 4.9375 17.62890625 4.9375 17.5625 7 C17.56443359 8.0209375 17.56443359 8.0209375 17.56640625 9.0625 C17 11 17 11 13 14 C14.65 16.97 16.3 19.94 18 23 C13 23 13 23 11.41796875 21.5390625 C10.80888672 20.59160156 10.80888672 20.59160156 10.1875 19.625 C9.55908203 18.68527344 9.55908203 18.68527344 8.91796875 17.7265625 C8 16 8 16 8 14 C6.68 14 5.36 14 4 14 C4 16.97 4 19.94 4 23 C2.68 23 1.36 23 0 23 C0 15.41 0 7.82 0 0 Z M4 4 C4 5.98 4 7.96 4 10 C6.64 10 9.28 10 12 10 C12.38218767 8.34385343 12.71395102 6.67542976 13 5 C12.01732141 3.79438816 12.01732141 3.79438816 10.15234375 3.90234375 C8.1015625 3.93489583 6.05078125 3.96744792 4 4 Z " fill="#000000" transform="translate(811,636)"/>
</svg>
